<svg xmlns="http://www.w3.org/2000/svg" viewBox="0 0 127.56 70.35">
    <defs>
        <style>
            .cls-1,.cls-11{fill:none;}.cls-2{clip-path:url(#clip-path);}.cls-3{fill:#00b1e9;}.cls-4{fill:#71d0f6;}.cls-5{fill:#7ea6d7;}.cls-6{fill:#007fc6;}.cls-7{fill:#00b4f1;}.cls-8{fill:#5b95cf;}.cls-9{fill:#008bbc;}.cls-10{fill:#4365af;}.cls-11{stroke:#231f20;stroke-miterlimit:10;stroke-width:0.2px;}.cls-12{fill:#231f20;}
        </style>
        <clipPath id="clip-path" transform="translate(0 0)">
            <rect class="cls-1" width="127.56" height="70.35"/>
        </clipPath>
    </defs>
    <title>Asset 1</title>
    <g id="Layer_2" data-name="Layer 2">
        <g id="Layer_1-2" data-name="Layer 1">
            <g class="cls-2">
                <path class="cls-3"
                      d="M62.59,7.45q0-3.51,0-7A1.84,1.84,0,0,0,61.45,0L55.2,0h-.39a2.21,2.21,0,0,0-.4,1.56q0,2.93,0,5.86a17.88,17.88,0,0,0,8.2,0"
                      transform="translate(0 0)"/>
                <path class="cls-4"
                      d="M65.22,7.68c-.66-.15-.74.3-.78.78q0,3.32,0,6.64c.32.08.39.39.78.39l6.64,0c.33.07.37-.15.39-.39-.2-2.4.47-5.65-.37-7.42l-6.64,0"
                      transform="translate(0 0)"/>
                <path class="cls-5"
                      d="M82.08,4.81c.14-.67-.3-.74-.78-.78L74.66,4c-.33-.07-.37.15-.39.39q0,3.52,0,7c-.07.33.15.37.39.39,2.4-.2,5.65.47,7.42-.36,0-.13,0-.26,0-.39q0-3.13,0-6.25"
                      transform="translate(0 0)"/>
                <path class="cls-6"
                      d="M86.59,29.28c.15-.67-.3-.74-.78-.78l-6.64,0c-.33-.07-.37.15-.39.39q0,3.52,0,7c-.07.33.15.37.39.39,2.4-.2,5.65.47,7.42-.37v-.39q0-3.13,0-6.25"
                      transform="translate(0 0)"/>
                <path class="cls-7"
                      d="M60.66,23.68c.14-.67-.31-.74-.78-.78l-6.64,0c-.33-.07-.37.15-.39.39q0,3.52,0,7c-.07.33.15.37.39.39,2.4-.2,5.65.47,7.42-.36v-.39q0-3.12,0-6.25"
                      transform="translate(0 0)"/>
                <path class="cls-8"
                      d="M66,33.37c.13-.6-.27-.67-.71-.71l-6,0c-.3-.07-.33.14-.36.35q0,3.19,0,6.39c-.07.3.14.34.35.36,2.18-.18,5.14.42,6.74-.33V39q0-2.84,0-5.68"
                      transform="translate(0 0)"/>
                <path class="cls-9"
                      d="M52.28,40.17c.09-.41-.18-.46-.48-.49l-4.13,0c-.2,0-.23.09-.24.24q0,2.19,0,4.37c0,.21.09.23.24.24,1.49-.12,3.52.3,4.62-.21v-.24q0-1.95,0-3.89"
                      transform="translate(0 0)"/>
                <polygon class="cls-10" points="45.32 14.56 45.12 14.68 45.65 14.74 45.39 14.58 45.32 14.56"/>
                <polygon class="cls-10" points="46.32 14.78 46.14 14.79 46.23 14.8 46.32 14.78"/>
                <polygon class="cls-10" points="46.74 14.75 46.6 14.75 46.89 14.8 47.07 14.79 46.74 14.75"/>
                <polygon class="cls-10" points="46.34 14.62 46.32 14.78 46.32 14.78 46.6 14.76 46.34 14.62"/>
                <path class="cls-10" d="M46.18,14.46l.08.08Zm.08.08.08.07-.08-.07" transform="translate(0 0)"/>
                <path class="cls-10"
                      d="M47.23,13.18c-.75.08-1.47.21-2.22.31h0a2.77,2.77,0,0,1-.57-.08l.8.23.14,0c.35,0,.8-.37,1.34-.39h0l.07.15.11.15h0A7.92,7.92,0,0,1,48,13.39h.19l.28.17.28.17h0c.45,0,1.66-.39,1-.47a12.53,12.53,0,0,0-1.28-.06H47.23"
                      transform="translate(0 0)"/>
                <path class="cls-10"
                      d="M41.2,14H41c0,.1,0,.23.15.29l.29-.12a1.06,1.06,0,0,0,.65.2,3.31,3.31,0,0,0,.64-.09L42.57,14c-.22,0-.27.1-.13.19A2.74,2.74,0,0,0,41.2,14"
                      transform="translate(0 0)"/>
                <polygon class="cls-10" points="41.02 13.93 40.73 13.97 40.74 13.98 41.03 13.96 41.02 13.93"/>
                <path class="cls-10"
                      d="M51.54,13.79l-.35,0c-.83.11-1.77.17-2.63.23v0h-.29a5.12,5.12,0,0,0,.8.54,26.43,26.43,0,0,1,3.49.63l.2-.09.09,0,.23.19.48.13h.18l-.08,0a9,9,0,0,1,1.08.35l.24,0c.28,0,.55.06.66.29l.19.07,0,0,.06.05.8.3,1.52.74c3.22,1.72,6.09,3.63,7.38,7.2a43.11,43.11,0,0,1,1.66,5.81l.2.73.11.36.06.18,0,.09,0,0h0l2.75.48-.23,0-.23,0,.23,0h0l0,0,1-1.12c.67-.75,1.23-1.54,1.83-2.32a34.14,34.14,0,0,1,3.77-4.56A39.11,39.11,0,0,0,80,19.46a1.49,1.49,0,0,0-1.42-2.09h0c-1.81.16-1.79,1.34-3.65,2.9a.56.56,0,0,1,.28-.13c.41,0-.67,2-2,2.66S70.78,25,69.88,26.47A17.58,17.58,0,0,0,63.15,17a14.22,14.22,0,0,0-3.41-1.32c-.77-.26-1.49-.76-2.11-1a10.66,10.66,0,0,0-2.71-.53c.91.22,1.61.28,2.62.58.66.25-.62.27-1.1.27h0l-.28-.22-.28-.23h0a3.08,3.08,0,0,0-.89-.09h-.43l-.12-.16-.05-.16h-.1a2.72,2.72,0,0,0-.67.11,2.41,2.41,0,0,1-.56.1l-.23,0L52,13.91a1.65,1.65,0,0,0-.49-.12m-.27.47c-.15,0-.36-.16-.52-.2.15,0,.37.16.52.2m-2.57.13c-.14-.07-.12-.19-.13-.29a2.74,2.74,0,0,1,1.4.41c-.14-.1-.1-.18.09-.18h0l.16.22a4.56,4.56,0,0,1-.46,0A1.14,1.14,0,0,1,49,14.3l-.29.09m5,1.14h0l0-.16-.08-.1.08.1.24.16Zm1,.31a7.91,7.91,0,0,0-.91-.3l.24,0h0l0,0,.22,0a.54.54,0,0,1,.46.26m2.17.42-.06-.14.06.14m0,0,0,0,0,0m.1,0,.15,0,.14,0-.14,0Zm.71.5a4.72,4.72,0,0,0-.28-.46l-.14-.09.14.09a4.72,4.72,0,0,1,.28.46m-.21,0h0m.93.52a.84.84,0,0,1-.72-.52,1.15,1.15,0,0,1,.75.52h0M50,14.51l.05,0-.05,0M74.9,20.28l-.19.15.19-.15"
                      transform="translate(0 0)"/>
                <path class="cls-10" d="M53.8,15.54a8.49,8.49,0,0,1,.9.3.55.55,0,0,0-.45-.26l-.18,0h0Z"
                      transform="translate(0 0)"/>
                <line class="cls-11" x1="0.02" y1="63.4" x2="127.52" y2="63.4"/>
                <path class="cls-12"
                      d="M6.51,58.9h-1A1.33,1.33,0,0,1,5,58.74L5,58.82l-.82,1.44a1.69,1.69,0,0,1-1.34.86,3.59,3.59,0,0,1-1.42-.47A4.47,4.47,0,0,1,.09,59.8v-.17s0,0,.07,0a2.14,2.14,0,0,0,.44.26,1.78,1.78,0,0,0,.85.27,3.52,3.52,0,0,0,1.67-.73c.73-.49,1.1-.89,1.1-1.2a1.52,1.52,0,0,0-.38-.72,5.34,5.34,0,0,1-.38-.52,2.76,2.76,0,0,1,.32-.61c.22-.35.36-.57.43-.66L5,56.87a1.53,1.53,0,0,0,1.27.57h.25Z"
                      transform="translate(0 0)"/>
                <path class="cls-12"
                      d="M9,58.9H7.82a.93.93,0,0,0-.12-.37,1.06,1.06,0,0,0-.21.2.39.39,0,0,1-.26.16H6.06V57.44h1.5a1.42,1.42,0,0,0,.17-.69q0-.19.38-.62a2,2,0,0,1,.58-.52l0,.33a6.12,6.12,0,0,1-.4,1.5H9Z"
                      transform="translate(0 0)"/>
                <path class="cls-12"
                      d="M11.65,54.09a2.06,2.06,0,0,1-.81.88l-1.12-.57a7.7,7.7,0,0,0-.62.54A5.64,5.64,0,0,1,8,54.35a7.31,7.31,0,0,1,.85-.87,2.75,2.75,0,0,0,1,.57,1.55,1.55,0,0,0,.35-.27l.36-.33Zm1.59,4.81h-1.1L12,58.53l-.26.37H9.93c-.11-.16-.2-.24-.26-.24s-.08,0-.15.12-.12.12-.15.12H8.42V57.44h1A.69.69,0,0,0,9.58,57a1.81,1.81,0,0,1,.4-.73,4.41,4.41,0,0,1,.57-.66.34.34,0,0,1,0,.14,7.25,7.25,0,0,1-.23,1.72,5.58,5.58,0,0,1,1,0,.25.25,0,0,0,.07-.16,1,1,0,0,0,0-.23,1,1,0,0,1,0-.23,1.37,1.37,0,0,1,.36-.6,2.57,2.57,0,0,1,.52-.54,2.42,2.42,0,0,1,.05.56v.39q0,.82.61.82h.34ZM10.51,53a2.54,2.54,0,0,1-.37.39q-.32.28-.44.28a1.52,1.52,0,0,1-.42-.3C9,53.15,8.92,53,8.92,53s.26-.33.78-.73a4,4,0,0,1,.81.71"
                      transform="translate(0 0)"/>
                <path class="cls-12"
                      d="M17.15,58.9h-1q-.52,0-.82-.86l-.48.86H12.8V57.44h2.36a1.82,1.82,0,0,0,.06-.58,1.29,1.29,0,0,1,.09-.58,1.85,1.85,0,0,1,.41-.6l.53-.53v.6a3.86,3.86,0,0,1-.07.58,3.89,3.89,0,0,0-.07.58c0,.36.24.54.72.54h.32Zm-.9-5.36a2.23,2.23,0,0,1-.41.57c-.26.3-.41.45-.48.46-.28-.15-.71-.35-1.29-.6a6.81,6.81,0,0,1,1-1,10.53,10.53,0,0,0,1.18.61"
                      transform="translate(0 0)"/>
                <path class="cls-12"
                      d="M20,54l-1,1.34.16,1.79A3.34,3.34,0,0,1,19,58a2.8,2.8,0,0,1-.24.8.67.67,0,0,1-.21.13H16.78V57.44h1.39a.25.25,0,0,0,0-.13A12.24,12.24,0,0,0,18,55.83a8.13,8.13,0,0,0-.29-1.4,2.35,2.35,0,0,1-.41-.41,6.58,6.58,0,0,1,.94-1.55l.08.07a1.42,1.42,0,0,0,.08.44c0,.12.28.3.7.56A6.82,6.82,0,0,0,20,54"
                      transform="translate(0 0)"/>
                <path class="cls-12"
                      d="M22.45,56.75A3.35,3.35,0,0,1,21.68,59l-.6-4.27a7.11,7.11,0,0,1,1-1.74,28.9,28.9,0,0,1,.39,3.75"
                      transform="translate(0 0)"/>
                <path class="cls-12"
                      d="M27.49,57.39a5.45,5.45,0,0,1-.56,2.33c-.45.95-1,1.42-1.7,1.42a4.76,4.76,0,0,1-2.7-.52v-.09a3.35,3.35,0,0,1,.88-.1,5.41,5.41,0,0,0,.91-.09,3.77,3.77,0,0,0,1.41-.83,3.53,3.53,0,0,0,1-1.22,1.18,1.18,0,0,0,.08-.36.31.31,0,0,0,0-.16,3.31,3.31,0,0,1-.38.7,1,1,0,0,1-.75.25c-.59,0-.89-.38-.89-1.14a2.92,2.92,0,0,1,.46-1.44,2,2,0,0,1,1.07-1,1.47,1.47,0,0,1,.89.94,3.49,3.49,0,0,1,.28,1.34m-1.11-.16v0a.62.62,0,0,0-.13-.39.41.41,0,0,0-.34-.2.47.47,0,0,0-.33.17.85.85,0,0,0-.21.34,1.09,1.09,0,0,0,.6.26,2.42,2.42,0,0,0,.41-.13"
                      transform="translate(0 0)"/>
                <path class="cls-12"
                      d="M36.81,56.56a3,3,0,0,1-.27,1.22,9.33,9.33,0,0,1-.6,1.11H31.16a1.08,1.08,0,0,1-.89-.46,1.48,1.48,0,0,1-.34-1,3.51,3.51,0,0,1,.32-1.28c.24-.59.49-.92.76-1a.16.16,0,0,1,0,.12,2.38,2.38,0,0,1-.15.62,2.39,2.39,0,0,0-.15.72c0,.14.12.3.36.48a1.12,1.12,0,0,0,.59.26h4.13a.08.08,0,0,0,0-.05,1.68,1.68,0,0,0-.21-.58l-.32-.58L36,54.88a2.47,2.47,0,0,1,.77,1.68m-2-2.54a4.66,4.66,0,0,1-.32.45c-.18.24-.3.36-.36.36s-.52-.28-.93-.53l-.48.53a3,3,0,0,1-.94-.56,3.26,3.26,0,0,1,.67-.8,2.88,2.88,0,0,0,.82.48s.13-.08.3-.24a1.31,1.31,0,0,1,.3-.26l.93.57m-.87-1c0,.07-.12.18-.31.32a.89.89,0,0,1-.39.22,1.14,1.14,0,0,1-.39-.21,1.37,1.37,0,0,1-.36-.31c.38-.43.61-.65.69-.65s.34.21.77.62"
                      transform="translate(0 0)"/>
                <path class="cls-12"
                      d="M40.33,58.9h-2l-.46-5.19a2.21,2.21,0,0,1,.4-.61,6,6,0,0,1,.5-.6l.16,2.41a15.83,15.83,0,0,0,.29,2.32c0,.14.17.21.42.21h.7Z"
                      transform="translate(0 0)"/>
                <rect class="cls-12" x="39.69" y="57.44" width="2.2" height="1.46"/>
                <path class="cls-12"
                      d="M49,57.44V58.9H47.28a8,8,0,0,1-.13-1q-.55-.05-.9-.05a3.12,3.12,0,0,0-1.66.53,3,3,0,0,1-1.12.53H41.36V57.44q1.79,0,2.08,0A5,5,0,0,0,45,57a7.45,7.45,0,0,0-1.78-.57,1.54,1.54,0,0,0-.91.4h-.09a.2.2,0,0,1,0-.11,1.71,1.71,0,0,1,.62-1.13,1.75,1.75,0,0,1,1.15-.61,3.09,3.09,0,0,1,1.18.36q1.14.55,1.5.67a5.28,5.28,0,0,0,2,.35,10,10,0,0,1-.34,1.11Z"
                      transform="translate(0 0)"/>
                <path class="cls-12"
                      d="M52.33,56.9q0,2-.4,2H48.62V57.44h2.72s0,0,0,0a1.73,1.73,0,0,0-.29-.78,2.72,2.72,0,0,0-.53-.7l.78-1.36a2.67,2.67,0,0,1,.74,1,3.34,3.34,0,0,1,.28,1.3m-1.09,3.68q0,.21-1,.8a1.89,1.89,0,0,1-.56-.37c-.3-.24-.44-.39-.44-.44s.15-.22.46-.52.48-.44.53-.44a2.18,2.18,0,0,1,.56.44c.32.29.48.47.48.53"
                      transform="translate(0 0)"/>
                <path class="cls-12"
                      d="M54.07,51.27a1.82,1.82,0,0,1-.28.41,2.92,2.92,0,0,0-1.44.53.53.53,0,0,1,.21-.29l.32-.24-.34-.11c-.16-.06-.24-.12-.24-.17a1,1,0,0,1,.3-.68.89.89,0,0,1,.66-.32.55.55,0,0,1,.26.07.22.22,0,0,1,.14.19,3.93,3.93,0,0,0-.25.35L53,50.81a1.24,1.24,0,0,0-.36.17c.09.19.55.29,1.4.29"
                      transform="translate(0 0)"/>
                <path class="cls-12"
                      d="M60.29,57.44V58.9H58.72c0-.41-.05-.83-.08-1.24a4.37,4.37,0,0,0-.21-1.22c-.1.32-.27.79-.52,1.42q-.86,1.76-4.34,1.74h-.48v-.12l2.19-1q1.66-.82,1.66-1.25a4.47,4.47,0,0,0-.33-.9,4.54,4.54,0,0,0-.9-1.18,1.35,1.35,0,0,0-.19.4L54.7,55a2.94,2.94,0,0,1-.72-.5.49.49,0,0,1,0-.25,6.53,6.53,0,0,1,.31-1.87,5.43,5.43,0,0,1,1.95,1.46A3.68,3.68,0,0,1,57.33,56q0,.5,0,1.74a.7.7,0,0,0,.2-.5,2,2,0,0,1,.07-.5,1.69,1.69,0,0,1,.13-.21,2.85,2.85,0,0,0,.48-1.31,12.34,12.34,0,0,0,.05-1.39,1.39,1.39,0,0,1,.21-.71,1.85,1.85,0,0,1,.5-.58c0,.26.08.64.13,1.15s.08,1.22.12,1.84a9,9,0,0,0,.25,1.8c0,.1.1.14.24.14Z"
                      transform="translate(0 0)"/>
                <path class="cls-12"
                      d="M63,54l-1,1.34.16,1.79A3.26,3.26,0,0,1,62,58a2.88,2.88,0,0,1-.24.8.68.68,0,0,1-.21.13H59.78V57.44h1.39a.25.25,0,0,0,0-.13A12.24,12.24,0,0,0,61,55.83a8.13,8.13,0,0,0-.29-1.4,2.32,2.32,0,0,1-.41-.41,6.61,6.61,0,0,1,.94-1.55l.08.07a1.51,1.51,0,0,0,.08.44c0,.12.28.3.7.56A6.89,6.89,0,0,0,63,54"
                      transform="translate(0 0)"/>
                <path class="cls-12"
                      d="M69.31,52.94a4.12,4.12,0,0,1-.38.5c-.22.26-.36.38-.41.38a4.12,4.12,0,0,1-1.09-.56c-.09.06-.29.24-.61.53a4.81,4.81,0,0,1-1.1-.57q.12-.16.78-.89a2.65,2.65,0,0,0,1,.56l.7-.56Zm2.39,6H70.33a.71.71,0,0,1-.65-.5l-.26-.85a2.73,2.73,0,0,0-.4.62c-.18.32-.34.46-.45.44l-2.4-.42a7.56,7.56,0,0,1,.53-1.6,2.07,2.07,0,0,1,.74-.76L68.89,55a2.3,2.3,0,0,1-.13-.4l.79-1.37.07,0q.12.46.37,2a13.86,13.86,0,0,0,.41,1.87q.1.3.62.3h.67Zm-2.42-2L69,55.72a4.46,4.46,0,0,1-.6.65,2.14,2.14,0,0,0-.5.34Z"
                      transform="translate(0 0)"/>
                <rect class="cls-12" x="71.12" y="57.44" width="2.2" height="1.46"/>
                <path class="cls-12"
                      d="M77.12,58.9h-.86c-.47,0-.78-.28-.94-.85q-.12.17-.49.85H72.76V57.44h2.37a1,1,0,0,0,.11-.49q0,.74,0-.5a1.23,1.23,0,0,1,.4-.68l.58-.61v.7a3.93,3.93,0,0,1,0,.48,3.33,3.33,0,0,0,0,.48.54.54,0,0,0,.61.61h.4Zm-.56,1.39-.38.5c-.2.27-.33.4-.39.4a4.78,4.78,0,0,1-1-.58,2.94,2.94,0,0,0-.54.56,4,4,0,0,1-1.06-.6,2.33,2.33,0,0,1,.33-.46c.14-.15.28-.3.41-.46a6.47,6.47,0,0,0,.94.58l.61-.61Z"
                      transform="translate(0 0)"/>
                <path class="cls-12"
                      d="M80.41,56.9q0,2-.4,2H76.7V57.44h2.72s0,0,0,0a1.73,1.73,0,0,0-.29-.78,2.69,2.69,0,0,0-.53-.7l.78-1.36a2.69,2.69,0,0,1,.74,1,3.34,3.34,0,0,1,.28,1.3m-1.09,3.68c0,.14-.35.41-1,.8a1.88,1.88,0,0,1-.56-.37c-.3-.24-.44-.39-.44-.44s.15-.22.46-.52.48-.44.53-.44a2.24,2.24,0,0,1,.56.44c.32.29.48.47.48.53"
                      transform="translate(0 0)"/>
                <path class="cls-12"
                      d="M86.42,58.9h-1a1.33,1.33,0,0,1-.52-.16l-.07.08L84,60.26a1.68,1.68,0,0,1-1.34.86,3.6,3.6,0,0,1-1.42-.47A4.52,4.52,0,0,1,80,59.8v-.17s0,0,.07,0a2.14,2.14,0,0,0,.44.26,1.78,1.78,0,0,0,.85.27A3.51,3.51,0,0,0,83,59.39c.73-.49,1.1-.89,1.1-1.2a1.52,1.52,0,0,0-.39-.72,5.49,5.49,0,0,1-.38-.52,2.76,2.76,0,0,1,.32-.61c.22-.35.36-.57.43-.66l.79,1.19a1.52,1.52,0,0,0,1.27.57h.25Z"
                      transform="translate(0 0)"/>
                <path class="cls-12"
                      d="M90.69,58.9H89c-.08-.15-.21-.37-.38-.66-.09.15-.23.37-.43.66H85.85V57.44h2.23a1.22,1.22,0,0,0-1-.58l-.48.07a5.86,5.86,0,0,1,.69-1.27,1.8,1.8,0,0,1,1.36-.47,1.94,1.94,0,0,1,1.1.37,1.17,1.17,0,0,1,.58,1,1,1,0,0,1-.17.48l-.28.46h.85Z"
                      transform="translate(0 0)"/>
                <path class="cls-12"
                      d="M93.46,54l-1,1.34.16,1.79a3.26,3.26,0,0,1-.12.85,2.81,2.81,0,0,1-.24.8.67.67,0,0,1-.21.13H90.26V57.44h1.39a.25.25,0,0,0,0-.13,12.39,12.39,0,0,0-.17-1.48,8.27,8.27,0,0,0-.29-1.4,2.22,2.22,0,0,1-.41-.41,6.55,6.55,0,0,1,.94-1.55l.08.07a1.45,1.45,0,0,0,.08.44c0,.12.28.3.7.56a6.89,6.89,0,0,0,.85.46"
                      transform="translate(0 0)"/>
                <path class="cls-12"
                      d="M95.93,56.75A3.35,3.35,0,0,1,95.16,59l-.6-4.27a7.17,7.17,0,0,1,1-1.74,28.72,28.72,0,0,1,.39,3.75"
                      transform="translate(0 0)"/>
                <path class="cls-12"
                      d="M102.85,52.94a4,4,0,0,1-.38.5c-.22.26-.36.38-.41.38a4.07,4.07,0,0,1-1.09-.56c-.09.06-.29.24-.61.53a4.79,4.79,0,0,1-1.1-.57q.12-.16.78-.89a2.65,2.65,0,0,0,1,.56l.7-.56Zm2.39,6h-1.36a.71.71,0,0,1-.65-.5l-.26-.85a2.73,2.73,0,0,0-.4.62c-.18.32-.34.46-.45.44l-2.4-.42a7.72,7.72,0,0,1,.53-1.6,2.07,2.07,0,0,1,.74-.76l1.44-.82a2.31,2.31,0,0,1-.13-.4l.8-1.37.06,0q.12.46.37,2a14,14,0,0,0,.41,1.87c.07.2.28.3.62.3h.68Zm-2.43-2-.24-1.17a4.56,4.56,0,0,1-.59.65,2.14,2.14,0,0,0-.51.34Z"
                      transform="translate(0 0)"/>
                <rect class="cls-12" x="104.66" y="57.44" width="2.2" height="1.46"/>
                <path class="cls-12"
                      d="M111.43,58.9h-1.1l-1-.9-.54.9h-2.52V57.44h2.46l-2.07-2a10.55,10.55,0,0,1,.54-2q3.8-.82,4-.8a14.25,14.25,0,0,1-.39,1.42l-3,.61,1.4,1.6q1,1.11,1.59,1.11h.61Z"
                      transform="translate(0 0)"/>
                <path class="cls-12"
                      d="M115.64,58.9h-1.18q-.54,0-.87-.87l-.5.88h-2.21V57.44h2.54s.05-.12.05-.37a2.63,2.63,0,0,1,.08-.83,2.28,2.28,0,0,1,.42-.58l.5-.52V56a2.38,2.38,0,0,1-.05.4,2.45,2.45,0,0,0-.06.41.53.53,0,0,0,.6.61h.68Zm-1.35,2.21a3.29,3.29,0,0,1-.49.47,1.28,1.28,0,0,1-.57.34,1.63,1.63,0,0,1-.55-.37c-.3-.24-.44-.4-.44-.47s.15-.23.44-.51.47-.42.54-.42a2,2,0,0,1,.58.44c.33.29.49.46.49.52"
                      transform="translate(0 0)"/>
                <path class="cls-12"
                      d="M118.09,58.9h-1.17a.93.93,0,0,0-.12-.37,1.07,1.07,0,0,0-.21.2.39.39,0,0,1-.27.16h-1.16V57.44h1.49a1.4,1.4,0,0,0,.17-.69c0-.12.13-.33.38-.62a2.07,2.07,0,0,1,.58-.52l0,.33a6.06,6.06,0,0,1-.4,1.5h.66Z"
                      transform="translate(0 0)"/>
                <path class="cls-12"
                      d="M120.75,54.09a2.06,2.06,0,0,1-.81.88l-1.13-.57a8,8,0,0,0-.62.54,5.64,5.64,0,0,1-1.14-.58,7,7,0,0,1,.85-.87,2.74,2.74,0,0,0,1,.57,1.63,1.63,0,0,0,.35-.27l.36-.33Zm1.59,4.81h-1.1l-.17-.37-.27.37H119c-.11-.16-.2-.24-.27-.24s-.08,0-.15.12-.13.12-.15.12h-.94V57.44h1a.68.68,0,0,0,.12-.48,1.78,1.78,0,0,1,.4-.73,4.53,4.53,0,0,1,.57-.66.34.34,0,0,1,0,.14,7.15,7.15,0,0,1-.22,1.72,5.55,5.55,0,0,1,1,0,.24.24,0,0,0,.07-.16,1,1,0,0,0,0-.23.92.92,0,0,1,0-.23,1.4,1.4,0,0,1,.36-.6,2.57,2.57,0,0,1,.52-.54,2.42,2.42,0,0,1,.05.56v.39q0,.82.61.82h.34ZM119.61,53a2.72,2.72,0,0,1-.37.39q-.32.28-.44.28a1.53,1.53,0,0,1-.42-.3c-.24-.2-.36-.32-.36-.35s.26-.33.78-.73a4,4,0,0,1,.81.71"
                      transform="translate(0 0)"/>
                <path class="cls-12"
                      d="M125.1,54l-1,1.34.16,1.79a3.34,3.34,0,0,1-.12.85,2.83,2.83,0,0,1-.24.8.66.66,0,0,1-.21.13h-1.76V57.44h1.39a.26.26,0,0,0,0-.13,12.31,12.31,0,0,0-.17-1.48,8.12,8.12,0,0,0-.29-1.4,2.32,2.32,0,0,1-.41-.41,6.58,6.58,0,0,1,.94-1.55l.08.07a1.45,1.45,0,0,0,.08.44c0,.12.28.3.7.56a6.82,6.82,0,0,0,.85.46"
                      transform="translate(0 0)"/>
                <path class="cls-12"
                      d="M127.56,56.75a3.35,3.35,0,0,1-.77,2.25l-.6-4.27a7.18,7.18,0,0,1,1-1.74,28.81,28.81,0,0,1,.38,3.75"
                      transform="translate(0 0)"/>
                <path class="cls-12" d="M1.27,66.5h.87l1.27,3.75h-.8l-.24-.76H1l-.24.76H0Zm-.05,2.34h1L1.7,67.33h0Z"
                      transform="translate(0 0)"/>
                <path class="cls-12"
                      d="M3.9,66.5H5.72a1.19,1.19,0,0,1,.83.29,1,1,0,0,1,.31.76.9.9,0,0,1-.35.79,1.08,1.08,0,0,1-.21.11l.12.06a.72.72,0,0,1,.32.64l0,.61a.82.82,0,0,0,0,.26.26.26,0,0,0,.12.12v.1H6.09A.88.88,0,0,1,6,70a4,4,0,0,1,0-.41v-.35a.44.44,0,0,0-.14-.36.76.76,0,0,0-.46-.11H4.65v1.48H3.9Zm.75,1.64h.88A.67.67,0,0,0,6,68a.46.46,0,0,0,.15-.37A.47.47,0,0,0,6,67.27a.6.6,0,0,0-.42-.12h-.9Z"
                      transform="translate(0 0)"/>
                <path class="cls-12" d="M8.52,66.5h.87l1.27,3.75h-.8l-.24-.76H8.26L8,70.25H7.25Zm-.05,2.34h1l-.48-1.51Z"
                      transform="translate(0 0)"/>
                <path class="cls-12"
                      d="M11.15,66.5h1.74a1.22,1.22,0,0,1,.82.25.86.86,0,0,1,.29.7.83.83,0,0,1-.33.71l-.12.07a.93.93,0,0,1,.23.12.83.83,0,0,1,.34.72,1.11,1.11,0,0,1-.34.88,1.48,1.48,0,0,1-1,.3H11.15ZM11.87,68h.86a.67.67,0,0,0,.42-.11.4.4,0,0,0,.14-.33.32.32,0,0,0-.15-.29.81.81,0,0,0-.44-.1h-.83Zm0,1.63h.91a.64.64,0,0,0,.44-.13.51.51,0,0,0,.15-.4.41.41,0,0,0-.15-.35.73.73,0,0,0-.45-.12h-.9Z"
                      transform="translate(0 0)"/>
                <polygon class="cls-12"
                         points="16.83 70.25 16.48 70.25 16.13 70.25 16.13 66.5 16.52 66.5 16.92 66.5 18.37 69.13 18.37 66.5 18.72 66.5 19.07 66.5 19.07 70.25 18.7 70.25 18.32 70.25 16.83 67.55 16.83 70.25"/>
                <polygon class="cls-12"
                         points="19.79 70.25 19.79 66.5 22.44 66.5 22.44 66.83 22.44 67.16 20.54 67.16 20.54 67.96 22.3 67.96 22.3 68.28 22.3 68.6 20.54 68.6 20.54 69.58 22.52 69.58 22.52 69.91 22.52 70.25 19.79 70.25"/>
                <polygon class="cls-12"
                         points="23.91 67.16 22.82 67.16 22.82 66.83 22.82 66.5 25.75 66.5 25.75 66.83 25.75 67.16 24.66 67.16 24.66 70.25 24.29 70.25 23.91 70.25 23.91 67.16"/>
                <polygon class="cls-12"
                         points="26.9 70.25 25.9 66.5 26.29 66.5 26.68 66.5 27.28 69.24 27.8 66.5 28.2 66.5 28.6 66.5 29.12 69.22 29.72 66.5 30.1 66.5 30.48 66.5 29.47 70.25 29.12 70.25 28.76 70.25 28.18 67.3 27.61 70.25 27.26 70.25 26.9 70.25"/>
                <path class="cls-12"
                      d="M31.24,69.82a2.07,2.07,0,0,1-.47-1.43,2.14,2.14,0,0,1,.47-1.45,1.74,1.74,0,0,1,2.53,0,2.14,2.14,0,0,1,.47,1.45,2.08,2.08,0,0,1-.47,1.43,1.77,1.77,0,0,1-2.53,0m2-.48a1.55,1.55,0,0,0,.26-1,1.61,1.61,0,0,0-.26-1,.91.91,0,0,0-1.44,0,1.61,1.61,0,0,0-.26,1,1.55,1.55,0,0,0,.26,1,.93.93,0,0,0,1.44,0"
                      transform="translate(0 0)"/>
                <path class="cls-12"
                      d="M34.84,66.5h1.82a1.19,1.19,0,0,1,.83.29,1,1,0,0,1,.31.76.9.9,0,0,1-.35.79l-.21.11.12.06a.72.72,0,0,1,.32.64l0,.61a.88.88,0,0,0,0,.26.26.26,0,0,0,.12.12v.1H37A.92.92,0,0,1,37,70a4,4,0,0,1,0-.41v-.35a.44.44,0,0,0-.14-.36.76.76,0,0,0-.46-.11h-.75v1.48h-.75Zm.75,1.64h.88A.67.67,0,0,0,36.9,68a.46.46,0,0,0,.15-.37.47.47,0,0,0-.14-.37.6.6,0,0,0-.42-.12h-.9Z"
                      transform="translate(0 0)"/>
                <polygon class="cls-12"
                         points="38.51 66.5 38.88 66.5 39.26 66.5 39.26 68.06 40.64 66.5 41.12 66.5 41.6 66.5 40.16 68.03 41.7 70.25 41.21 70.25 40.71 70.25 39.63 68.6 39.26 68.99 39.26 70.25 38.89 70.25 38.51 70.25 38.51 66.5"/>
                <polygon class="cls-12"
                         points="43.48 70.25 43.48 66.5 46.04 66.5 46.04 66.83 46.04 67.16 44.23 67.16 44.23 68.02 45.8 68.02 45.8 68.34 45.8 68.66 44.23 68.66 44.23 70.25 43.85 70.25 43.48 70.25"/>
                <path class="cls-12"
                      d="M46.85,69.82a2.07,2.07,0,0,1-.47-1.43,2.13,2.13,0,0,1,.47-1.45,1.74,1.74,0,0,1,2.53,0,2.15,2.15,0,0,1,.47,1.45,2.08,2.08,0,0,1-.47,1.43,1.77,1.77,0,0,1-2.53,0m2-.48a1.54,1.54,0,0,0,.26-1,1.6,1.6,0,0,0-.26-1,.91.91,0,0,0-1.44,0,1.61,1.61,0,0,0-.26,1,1.54,1.54,0,0,0,.26,1,.93.93,0,0,0,1.44,0"
                      transform="translate(0 0)"/>
                <path class="cls-12"
                      d="M50.44,66.5h1.82a1.18,1.18,0,0,1,.83.29,1,1,0,0,1,.32.76.9.9,0,0,1-.35.79,1,1,0,0,1-.21.11l.12.06a.72.72,0,0,1,.32.64l0,.61a.81.81,0,0,0,0,.26.25.25,0,0,0,.12.12v.1h-.83a.85.85,0,0,1-.05-.25,3.76,3.76,0,0,1,0-.41v-.35a.44.44,0,0,0-.14-.36.76.76,0,0,0-.46-.11h-.75v1.48h-.75Zm.75,1.64h.88a.67.67,0,0,0,.44-.12.46.46,0,0,0,.15-.37.47.47,0,0,0-.14-.37.61.61,0,0,0-.42-.12h-.9Z"
                      transform="translate(0 0)"/>
                <path class="cls-12"
                      d="M55.46,66.5h1.81a1.19,1.19,0,0,1,.83.29,1,1,0,0,1,.31.76.9.9,0,0,1-.35.79,1,1,0,0,1-.21.11l.12.06a.72.72,0,0,1,.32.64l0,.61a.81.81,0,0,0,0,.26.25.25,0,0,0,.12.12v.1h-.83a.86.86,0,0,1-.05-.25,3.75,3.75,0,0,1,0-.41v-.35a.43.43,0,0,0-.14-.36.76.76,0,0,0-.46-.11h-.75v1.48h-.75Zm.75,1.64h.88a.67.67,0,0,0,.44-.12.46.46,0,0,0,.15-.37.47.47,0,0,0-.14-.37.6.6,0,0,0-.42-.12h-.9Z"
                      transform="translate(0 0)"/>
                <polygon class="cls-12"
                         points="59.08 70.25 59.08 66.5 61.73 66.5 61.73 66.83 61.73 67.16 59.83 67.16 59.83 67.96 61.59 67.96 61.59 68.28 61.59 68.6 59.83 68.6 59.83 69.58 61.81 69.58 61.81 69.91 61.81 70.25 59.08 70.25"/>
                <path class="cls-12"
                      d="M64.38,67.63a.57.57,0,0,0-.23-.43.85.85,0,0,0-.54-.16.68.68,0,0,0-.45.13.44.44,0,0,0-.16.37.28.28,0,0,0,.17.26,3.18,3.18,0,0,0,.71.22,2.54,2.54,0,0,1,1.05.42,1,1,0,0,1,.26.76,1,1,0,0,1-.4.84,1.71,1.71,0,0,1-1.08.31A1.61,1.61,0,0,1,62.65,70a1.25,1.25,0,0,1-.41-.93H63a.59.59,0,0,0,.21.46.84.84,0,0,0,.55.16,1.1,1.1,0,0,0,.56-.12.38.38,0,0,0,.2-.34.35.35,0,0,0-.14-.31,2,2,0,0,0-.61-.21,3.12,3.12,0,0,1-1.15-.43.86.86,0,0,1-.29-.72,1.07,1.07,0,0,1,.38-.87,1.54,1.54,0,0,1,1-.32,1.44,1.44,0,0,1,1,.33,1.26,1.26,0,0,1,.42.9Z"
                      transform="translate(0 0)"/>
                <polygon class="cls-12"
                         points="65.77 70.25 65.77 66.5 68.42 66.5 68.42 66.83 68.42 67.16 66.52 67.16 66.52 67.96 68.29 67.96 68.29 68.28 68.29 68.6 66.52 68.6 66.52 69.58 68.5 69.58 68.5 69.91 68.5 70.25 65.77 70.25"/>
                <path class="cls-12"
                      d="M70.11,66.5H71l1.27,3.75h-.8l-.24-.76H69.85l-.24.76h-.78Zm-.05,2.34h1l-.48-1.51h0Z"
                      transform="translate(0 0)"/>
                <path class="cls-12"
                      d="M72.74,66.5h1.81a1.19,1.19,0,0,1,.83.29,1,1,0,0,1,.32.76.9.9,0,0,1-.35.79,1,1,0,0,1-.21.11l.12.06a.72.72,0,0,1,.32.64l0,.61a.79.79,0,0,0,0,.26.25.25,0,0,0,.12.12v.1h-.83a.86.86,0,0,1-.05-.25,3.75,3.75,0,0,1,0-.41v-.35a.43.43,0,0,0-.14-.36.76.76,0,0,0-.46-.11h-.75v1.48h-.75Zm.75,1.64h.88a.67.67,0,0,0,.44-.12.46.46,0,0,0,.15-.37.47.47,0,0,0-.14-.37.6.6,0,0,0-.42-.12h-.9Z"
                      transform="translate(0 0)"/>
                <path class="cls-12"
                      d="M79.41,68.93a1.57,1.57,0,0,1-.49,1,1.53,1.53,0,0,1-1.07.38,1.49,1.49,0,0,1-1.21-.53,2.13,2.13,0,0,1-.45-1.43,2.21,2.21,0,0,1,.45-1.46,1.48,1.48,0,0,1,1.21-.54,1.58,1.58,0,0,1,1.06.36,1.46,1.46,0,0,1,.49,1h-.75a.7.7,0,0,0-.25-.48.84.84,0,0,0-.55-.18.76.76,0,0,0-.66.35,1.69,1.69,0,0,0-.24,1,1.62,1.62,0,0,0,.24.94.75.75,0,0,0,.66.34.77.77,0,0,0,.55-.2.82.82,0,0,0,.25-.54Z"
                      transform="translate(0 0)"/>
                <polygon class="cls-12"
                         points="79.96 66.5 80.33 66.5 80.71 66.5 80.71 67.91 82.12 67.91 82.12 66.5 82.5 66.5 82.87 66.5 82.87 70.25 82.5 70.25 82.12 70.25 82.12 68.55 80.71 68.55 80.71 70.25 80.34 70.25 79.96 70.25 79.96 66.5"/>
                <path class="cls-12" d="M86,66.5h.87l1.27,3.75h-.8l-.24-.76H85.74l-.24.76h-.78Zm-.05,2.34h1l-.48-1.51Z"
                      transform="translate(0 0)"/>
                <polygon class="cls-12"
                         points="89.29 70.25 88.94 70.25 88.59 70.25 88.59 66.5 88.99 66.5 89.38 66.5 90.83 69.13 90.83 66.5 91.18 66.5 91.53 66.5 91.53 70.25 91.16 70.25 90.78 70.25 89.29 67.55 89.29 70.25"/>
                <path class="cls-12"
                      d="M92.25,66.5h1.54a1.41,1.41,0,0,1,1.13.45,2,2,0,0,1,.39,1.33,2.31,2.31,0,0,1-.4,1.47,1.42,1.42,0,0,1-1.18.5H92.25ZM93,69.6h.64a.79.79,0,0,0,.69-.32,1.67,1.67,0,0,0,.23-1,1.48,1.48,0,0,0-.21-.87.75.75,0,0,0-.65-.29H93Z"
                      transform="translate(0 0)"/>
                <path class="cls-12"
                      d="M97.27,66.5h1.51a1.33,1.33,0,0,1,.93.3,1.14,1.14,0,0,1,.32.87,1.24,1.24,0,0,1-.32.92,1.28,1.28,0,0,1-.94.31H98v1.34h-.75ZM98,68.26h.63a.68.68,0,0,0,.48-.14.57.57,0,0,0,.16-.44.49.49,0,0,0-.16-.4.72.72,0,0,0-.48-.13H98Z"
                      transform="translate(0 0)"/>
                <path class="cls-12"
                      d="M103.5,68.83a1.63,1.63,0,0,1-.34,1.16,1.49,1.49,0,0,1-1.11.35,1.46,1.46,0,0,1-1.1-.37,1.61,1.61,0,0,1-.36-1.14V66.5h.75v2.36a.9.9,0,0,0,.18.6.66.66,0,0,0,.53.2.68.68,0,0,0,.54-.19,1,1,0,0,0,.16-.62V66.5h.75Z"
                      transform="translate(0 0)"/>
                <path class="cls-12"
                      d="M104.24,66.5H106a1.22,1.22,0,0,1,.82.25.87.87,0,0,1,.29.7.83.83,0,0,1-.33.71l-.12.07a.93.93,0,0,1,.22.12.83.83,0,0,1,.34.72,1.11,1.11,0,0,1-.34.88,1.47,1.47,0,0,1-1,.3h-1.63ZM105,68h.86a.67.67,0,0,0,.42-.11.4.4,0,0,0,.14-.33.32.32,0,0,0-.15-.29.81.81,0,0,0-.44-.1H105Zm0,1.63h.91a.64.64,0,0,0,.44-.13.51.51,0,0,0,.15-.4.42.42,0,0,0-.15-.35.74.74,0,0,0-.45-.12H105Z"
                      transform="translate(0 0)"/>
                <polygon class="cls-12"
                         points="107.86 70.25 107.86 66.5 108.23 66.5 108.61 66.5 108.61 69.58 110.4 69.58 110.4 69.91 110.4 70.25 107.86 70.25"/>
                <polygon class="cls-12"
                         points="110.86 66.5 111.23 66.5 111.61 66.5 111.61 70.25 111.24 70.25 110.86 70.25 110.86 66.5"/>
                <path class="cls-12"
                      d="M114.27,67.63a.57.57,0,0,0-.23-.43.85.85,0,0,0-.54-.16.69.69,0,0,0-.45.13.45.45,0,0,0-.16.37.28.28,0,0,0,.17.26,3.18,3.18,0,0,0,.71.22,2.53,2.53,0,0,1,1.05.42,1,1,0,0,1,.26.76,1,1,0,0,1-.4.84,1.72,1.72,0,0,1-1.08.31,1.6,1.6,0,0,1-1.07-.33,1.24,1.24,0,0,1-.41-.93h.72a.6.6,0,0,0,.21.46.84.84,0,0,0,.55.16,1.1,1.1,0,0,0,.56-.12.38.38,0,0,0,.2-.34.35.35,0,0,0-.14-.31,2,2,0,0,0-.61-.21,3.1,3.1,0,0,1-1.14-.43.87.87,0,0,1-.29-.72,1.08,1.08,0,0,1,.38-.87,1.54,1.54,0,0,1,1-.32,1.44,1.44,0,0,1,1,.33,1.27,1.27,0,0,1,.42.9Z"
                      transform="translate(0 0)"/>
                <polygon class="cls-12"
                         points="115.64 66.5 116.01 66.5 116.39 66.5 116.39 67.91 117.8 67.91 117.8 66.5 118.17 66.5 118.55 66.5 118.55 70.25 118.17 70.25 117.8 70.25 117.8 68.55 116.39 68.55 116.39 70.25 116.01 70.25 115.64 70.25 115.64 66.5"/>
                <polygon class="cls-12"
                         points="119.22 66.5 119.6 66.5 119.97 66.5 119.97 70.25 119.6 70.25 119.22 70.25 119.22 66.5"/>
                <polygon class="cls-12"
                         points="121.35 70.25 121 70.25 120.64 70.25 120.64 66.5 121.04 66.5 121.43 66.5 122.88 69.13 122.88 66.5 123.23 66.5 123.58 66.5 123.58 70.25 123.21 70.25 122.83 70.25 121.35 67.55 121.35 70.25"/>
                <path class="cls-12"
                      d="M125.85,70.35a1.57,1.57,0,0,1-1.25-.53,2.08,2.08,0,0,1-.46-1.43,2.11,2.11,0,0,1,.48-1.46,1.65,1.65,0,0,1,1.3-.54,1.67,1.67,0,0,1,1.08.34,1.34,1.34,0,0,1,.5.92h-.75a.62.62,0,0,0-.26-.43A.81.81,0,0,0,126,67a.92.92,0,0,0-.77.35,1.54,1.54,0,0,0-.28,1,1.52,1.52,0,0,0,.27,1,.94.94,0,0,0,.78.33h0a.79.79,0,0,0,.68-.35,1.4,1.4,0,0,0,.2-.46H126v-.65h1.51v2H127l-.07-.49,0,.06a1.2,1.2,0,0,1-1,.53Z"
                      transform="translate(0 0)"/>
            </g>
        </g>
    </g>
</svg>