<svg xmlns="http://www.w3.org/2000/svg">
    <symbol id="arrow" viewBox="0 0 25.94 13">
        <x:xmpmeta xmlns:x="adobe:ns:meta/" x:xmptk="Adobe XMP Core 5.6-c138 79.159824, 2016/09/14-01:09:01        ">
            <rdf:RDF xmlns:rdf="http://www.w3.org/1999/02/22-rdf-syntax-ns#">
                <rdf:Description rdf:about=""/>
            </rdf:RDF>
        </x:xmpmeta>
        <?xpacket end="w"?>
        <path id="Shape_62_copy" data-name="Shape 62 copy" class="cls-1"
              d="M1381.25,2488.7l6.49-5.68a0.818,0.818,0,0,1,.58-0.24,0.853,0.853,0,0,1,.31.06,0.819,0.819,0,0,1,.5.75v4.06h17.04a0.807,0.807,0,0,1,.81.81v1.63a0.807,0.807,0,0,1-.81.81h-17.04v4.06a0.808,0.808,0,0,1-.5.75,0.686,0.686,0,0,1-.31.06,0.852,0.852,0,0,1-.58-0.23l-6.49-5.69A0.827,0.827,0,0,1,1381.25,2488.7Z"
              transform="translate(-1381.03 -2482.78)"/>
    </symbol>
    <symbol id="arrowLeft" viewBox="0 0 20 34">
        <metadata><?xpacket begin="﻿" id="W5M0MpCehiHzreSzNTczkc9d"?>
            <x:xmpmeta xmlns:x="adobe:ns:meta/"
                       x:xmptk="Adobe XMP Core 5.6-c138 79.159824, 2016/09/14-01:09:01        ">
                <rdf:RDF xmlns:rdf="http://www.w3.org/1999/02/22-rdf-syntax-ns#">
                    <rdf:Description rdf:about=""/>
                </rdf:RDF>
            </x:xmpmeta>
            <?xpacket end="w"?>
        </metadata>
        <path class="cls-1"
              d="M87.827,574.938L74.315,588.493l13.511,13.554a0.558,0.558,0,1,1-.787.79L73.152,588.905a0.611,0.611,0,0,1,0-.824l13.887-13.933A0.558,0.558,0,0,1,87.827,574.938Z"
              transform="translate(-70.5 -571.5)"/>
    </symbol>
    <symbol id="calender" viewBox="0 0 18 20">
        <x:xmpmeta xmlns:x="adobe:ns:meta/" x:xmptk="Adobe XMP Core 5.6-c138 79.159824, 2016/09/14-01:09:01        ">
            <rdf:RDF xmlns:rdf="http://www.w3.org/1999/02/22-rdf-syntax-ns#">
                <rdf:Description rdf:about=""/>
            </rdf:RDF>
        </x:xmpmeta>
        <?xpacket end="w"?>
        <path id="_67_copy_2" data-name="67 copy 2" class="cls-1"
              d="M1615,1450v20h18v-20h-18Zm16,18h-14v-16h14v16Zm-2-14h-10v2h10v-2Zm-8,5h-2v2h2v-2Zm2,2h2v-2h-2v2Zm4,0h2v-2h-2v2Zm-6,3h-2v2h2v-2Zm2,2h2v-2h-2v2Zm4,0h2v-2h-2v2Z"
              transform="translate(-1615 -1450)"/>
    </symbol>
    <symbol id="cart" viewBox="0 0 1792 1792">
        <path d="M704 1536q0 52-38 90t-90 38-90-38-38-90 38-90 90-38 90 38 38 90zm896 0q0 52-38 90t-90 38-90-38-38-90 38-90 90-38 90 38 38 90zm128-1088v512q0 24-16.5 42.5t-40.5 21.5l-1044 122q13 60 13 70 0 16-24 64h920q26 0 45 19t19 45-19 45-45 19h-1024q-26 0-45-19t-19-45q0-11 8-31.5t16-36 21.5-40 15.5-29.5l-177-823h-204q-26 0-45-19t-19-45 19-45 45-19h256q16 0 28.5 6.5t19.5 15.5 13 24.5 8 26 5.5 29.5 4.5 26h1201q26 0 45 19t19 45z"/>
    </symbol>
    <symbol id="close" viewBox="0 0 512 512">
        <g>
            <path d="M256,33C132.3,33,32,133.3,32,257c0,123.7,100.3,224,224,224c123.7,0,224-100.3,224-224C480,133.3,379.7,33,256,33z    M364.3,332.5c1.5,1.5,2.3,3.5,2.3,5.6c0,2.1-0.8,4.2-2.3,5.6l-21.6,21.7c-1.6,1.6-3.6,2.3-5.6,2.3c-2,0-4.1-0.8-5.6-2.3L256,289.8   l-75.4,75.7c-1.5,1.6-3.6,2.3-5.6,2.3c-2,0-4.1-0.8-5.6-2.3l-21.6-21.7c-1.5-1.5-2.3-3.5-2.3-5.6c0-2.1,0.8-4.2,2.3-5.6l75.7-76   l-75.9-75c-3.1-3.1-3.1-8.2,0-11.3l21.6-21.7c1.5-1.5,3.5-2.3,5.6-2.3c2.1,0,4.1,0.8,5.6,2.3l75.7,74.7l75.7-74.7   c1.5-1.5,3.5-2.3,5.6-2.3c2.1,0,4.1,0.8,5.6,2.3l21.6,21.7c3.1,3.1,3.1,8.2,0,11.3l-75.9,75L364.3,332.5z"/>
        </g>
    </symbol>
    <symbol id="facebook" viewBox="0 0 512 512">
        <path d="M288,192v-38.1c0-17.2,3.8-25.9,30.5-25.9H352V64h-55.9c-68.5,0-91.1,31.4-91.1,85.3V192h-45v64h45v192h83V256h56.4l7.6-64  H288z"/>
    </symbol>
    <symbol id="googleplus" viewBox="0 0 24 24">
        <path d="M7.635 10.909v2.619h4.335c-.173 1.125-1.31 3.295-4.331 3.295-2.604 0-4.731-2.16-4.731-4.823 0-2.662 2.122-4.822 4.728-4.822 1.485 0 2.479.633 3.045 1.178l2.073-1.994c-1.33-1.245-3.056-1.995-5.115-1.995C3.412 4.365 0 7.785 0 12s3.414 7.635 7.635 7.635c4.41 0 7.332-3.098 7.332-7.461 0-.501-.054-.885-.12-1.265H7.635zm16.365 0h-2.183V8.726h-2.183v2.183h-2.182v2.181h2.184v2.184h2.189V13.09H24"/>
    </symbol>
    <symbol id="heart" viewBox="-0.709 -11.555 141.732 141.732">
        <g>
            <path d="M140.314,37.654C140.314,16.858,123.402,0,102.537,0c-13.744,0-25.77,7.317-32.379,18.255C63.549,7.317,51.521,0,37.777,0   C16.912,0,0,16.858,0,37.654c0,10.821,4.588,20.57,11.922,27.438h-0.01l54.084,51.584c0.992,1.188,2.48,1.945,4.148,1.945   c1.545,0,2.936-0.653,3.92-1.696l54.346-51.833h-0.016C135.729,58.225,140.314,48.476,140.314,37.654"/>
        </g>
    </symbol>
    <symbol id="marker-o" viewBox="0 0 14 20">
        <x:xmpmeta xmlns:x="adobe:ns:meta/" x:xmptk="Adobe XMP Core 5.6-c138 79.159824, 2016/09/14-01:09:01        ">
            <rdf:RDF xmlns:rdf="http://www.w3.org/1999/02/22-rdf-syntax-ns#">
                <rdf:Description rdf:about=""/>
            </rdf:RDF>
        </x:xmpmeta>
        <?xpacket end="w"?>
        <path id="_19_copy_2" data-name="19 copy 2" class="cls-1"
              d="M1622,1489a7.008,7.008,0,0,0-7,7c0,3.54,5.56,11.08,6.2,11.93l0.8,1.07,0.8-1.07c0.64-.85,6.2-8.39,6.2-11.93A7.008,7.008,0,0,0,1622,1489Zm0,16.63c-2.2-3.1-5-7.7-5-9.63a5,5,0,0,1,10,0C1627,1497.93,1624.2,1502.52,1622,1505.63Zm0-12.63a3,3,0,1,0,3,3A3.009,3.009,0,0,0,1622,1493Zm0,4a1,1,0,1,1,1-1A1,1,0,0,1,1622,1497Z"
              transform="translate(-1615 -1489)"/>
    </symbol>
    <symbol id="marker" viewBox="0 0 1792 1792">
        <path d="M1152 640q0-106-75-181t-181-75-181 75-75 181 75 181 181 75 181-75 75-181zm256 0q0 109-33 179l-364 774q-16 33-47.5 52t-67.5 19-67.5-19-46.5-52l-365-774q-33-70-33-179 0-212 150-362t362-150 362 150 150 362z"/>
    </symbol>
    <symbol id="play" viewBox="0 0 20 20">
        <title/>
        <desc/>
        <g id="play" stroke="none" stroke-width="1">
            <g id="Icons-AV" transform="translate(-126.000000, -85.000000)">
                <g id="play-circle-fill" transform="translate(126.000000, 85.000000)">
                    <path d="M10,0 C4.5,0 0,4.5 0,10 C0,15.5 4.5,20 10,20 C15.5,20 20,15.5 20,10 C20,4.5 15.5,0 10,0 L10,0 Z M8,14.5 L8,5.5 L14,10 L8,14.5 L8,14.5 Z"
                          id="Shape"/>
                </g>
            </g>
        </g>
    </symbol>
    <symbol id="search2" viewBox="0 0 16 16">
        <path d="M15.7,14.3l-3.105-3.105C13.473,10.024,14,8.576,14,7c0-3.866-3.134-7-7-7S0,3.134,0,7s3.134,7,7,7  c1.576,0,3.024-0.527,4.194-1.405L14.3,15.7c0.184,0.184,0.38,0.3,0.7,0.3c0.553,0,1-0.447,1-1C16,14.781,15.946,14.546,15.7,14.3z   M2,7c0-2.762,2.238-5,5-5s5,2.238,5,5s-2.238,5-5,5S2,9.762,2,7z"/>
    </symbol>
    <symbol id="twitter" viewBox="0 0 24 24">
        <path d="M23.954 4.569c-.885.389-1.83.654-2.825.775 1.014-.611 1.794-1.574 2.163-2.723-.951.555-2.005.959-3.127 1.184-.896-.959-2.173-1.559-3.591-1.559-2.717 0-4.92 2.203-4.92 4.917 0 .39.045.765.127 1.124C7.691 8.094 4.066 6.13 1.64 3.161c-.427.722-.666 1.561-.666 2.475 0 1.71.87 3.213 2.188 4.096-.807-.026-1.566-.248-2.228-.616v.061c0 2.385 1.693 4.374 3.946 4.827-.413.111-.849.171-1.296.171-.314 0-.615-.03-.916-.086.631 1.953 2.445 3.377 4.604 3.417-1.68 1.319-3.809 2.105-6.102 2.105-.39 0-.779-.023-1.17-.067 2.189 1.394 4.768 2.209 7.557 2.209 9.054 0 13.999-7.496 13.999-13.986 0-.209 0-.42-.015-.63.961-.689 1.8-1.56 2.46-2.548l-.047-.02z"/>
    </symbol>
</svg>